<svg width="100" height="155" viewBox="0 0 100 155" fill="none" xmlns="http://www.w3.org/2000/svg">
<path d="M97.6992 50.7115C85.6246 50.7115 73.5868 51.8342 61.5857 51.8342C55.8474 51.8342 50.1092 51.8342 44.3709 51.8342C40.3595 51.8342 43.3119 49.1077 45.1818 47.094C53.0464 38.6244 60.2969 29.7334 68.509 21.5213C72.7322 17.2982 75.7552 12.9944 79.1123 8.11129C80.1009 6.67326 83.2984 -0.697448 81.7319 2.43542C76.084 13.7314 73.9208 28.1733 72.9998 40.6072C71.2168 64.6777 67.5407 88.8679 58.4047 111.337C51.8877 127.366 42.3693 147.173 24.2247 152.254C13.2814 155.318 5.60624 148.292 2.26967 138.282" stroke="#1E1E1E" stroke-width="3" stroke-linecap="round"/>
</svg>
