<svg width="362" height="132" viewBox="0 0 362 132" fill="none" xmlns="http://www.w3.org/2000/svg">
<path d="M2.07338 119.141C13.0842 106.907 25.0758 92.6057 33.509 78.4744C38.2493 70.5311 43.736 63.158 47.4804 54.6482C48.1678 53.0858 53.1671 46.1656 49.7882 46.1656C42.2141 46.1656 43.6133 58.0617 43.6133 63.0061C43.6133 72.9575 47.3184 79.892 50.599 89.0777C53.2189 96.4135 57.4982 110.628 51.2227 117.145C48.7277 119.736 37.6336 129.349 33.509 124.193C30.7327 120.723 27.0335 115.975 26.7728 111.282C26.679 109.594 24.9316 104.118 25.7125 108.413C26.2758 111.511 28.63 114.751 30.1409 117.395C39.9713 134.598 57.7757 97.4214 60.4538 89.9509C65.1954 76.7242 71.927 63.9004 77.2943 50.9058C81.9286 39.6859 88.5213 29.4493 88.5213 16.9753C88.5213 13.2204 88.7277 3.61117 83.4692 2.44261C79.2659 1.50856 78.417 17.8664 78.417 20.3434C78.417 38.3263 77.2943 56.1842 77.2943 74.1707C77.2943 83.4642 77.2943 92.7576 77.2943 102.051C77.2943 104.578 78.0995 108.909 77.0448 111.282C75.1328 115.584 76.1716 130.086 76.1716 125.378C76.1716 120.662 77.8002 113.74 80.1011 109.598C82.6473 105.015 86.072 100.526 90.2054 97.3108C93.9988 94.3603 90.7667 105.73 90.7667 108.164C90.7667 113.901 90.5207 117.576 93.2616 122.509C95.9127 127.281 102.255 128.123 107.046 128.123C113.398 128.123 120.041 127.793 123.076 121.386C126.182 114.828 125.57 107.661 125.57 100.617C125.57 96.2924 115.893 92.7856 113.221 96.1257C109.932 100.237 108.73 102.272 108.73 107.914C108.73 111.87 107.491 118.996 110.102 122.26C111.57 124.094 113.46 125.877 116.027 125.877C119.602 125.877 119.227 122.028 120.518 119.702C121.182 118.507 122.202 105.334 122.202 109.598C122.202 115.209 125.041 118.861 127.566 123.632C128.616 125.615 130.579 127.552 132.868 128.06C145.594 130.888 159.671 129.245 172.599 129.245C220.17 129.245 267.2 127.494 314.683 124.755C328.734 123.944 370.921 122.509 356.847 122.509" stroke="#1E1E1E" stroke-width="3" stroke-linecap="round"/>
</svg>
