<svg width="170" height="91" viewBox="0 0 170 91" fill="none" xmlns="http://www.w3.org/2000/svg">
<path d="M1.54599 56.1963C8.72529 56.1963 15.6891 54.6011 22.8149 53.8885C25.898 53.5802 32.9895 53.7637 35.4765 51.955C40.8234 48.0663 41.0331 37.022 43.3354 30.4989C46.0301 22.8639 48.6994 11.6407 48.6994 3.42935C48.6994 -0.483998 47.9451 5.98179 47.6391 7.35881C46.8346 10.9792 46.5849 16.3569 46.454 20.0204C46.1416 28.7669 44.2086 37.129 44.2086 45.8425C44.2086 52.3769 41.9632 58.7071 41.9632 65.1779C41.9632 71.1656 41.9632 77.1534 41.9632 83.1411C41.9632 86.2939 41.0024 88.7546 44.77 88.7546C47.3631 88.7546 52.3833 84.1468 53.7516 82.0184C57.6777 75.9111 61.4203 69.8988 64.9786 63.4938C66.4805 60.7903 72.7848 46.5236 68.3467 54.5122C65.5622 59.5243 61.2954 87.1181 70.0307 87.6319C79.5392 88.1912 93.6086 74.7109 94.7301 65.1779C94.8683 64.0039 97.3451 57.4519 95.8528 60.0634C94.624 62.2139 92.6439 63.4358 92.4847 66.3006C92.1888 71.6274 89.8691 78.1965 91.4244 83.6401C95.7282 98.7033 112.67 78.674 117.745 73.5981C124.734 66.6099 131.316 59.4924 135.771 50.5828C138.995 44.1355 146.374 35.7131 146.374 28.1288C146.374 22.4911 147.497 16.645 147.497 10.7269C147.497 4.98028 143.318 0.70256 139.014 6.23611C134.354 12.228 129.868 18.4737 126.727 25.3844C123.074 33.4213 121.597 42.6179 118.057 50.5828C115.168 57.0834 109.2 79.4486 116.311 85.137C124.375 91.5883 142.576 73.5674 144.067 66.8619C145.368 61.0048 146.374 56.2157 146.374 50.0214C146.374 47.153 142.29 48.1101 141.01 49.7096C139.885 51.1161 139.638 54.9252 139.638 56.7576C139.638 63.5947 167.706 58.0849 167.706 50.5828" stroke="#1E1E1E" stroke-width="3" stroke-linecap="round"/>
</svg>
